<?xml version="1.0" standalone="no"?>
<!DOCTYPE svg PUBLIC "-//W3C//DTD SVG 20010904//EN"
 "http://www.w3.org/TR/2001/REC-SVG-20010904/DTD/svg10.dtd">
<svg version="1.0" xmlns="http://www.w3.org/2000/svg"
 width="300.000000pt" height="300.000000pt" viewBox="0 0 300.000000 300.000000"
 preserveAspectRatio="xMidYMid meet">
<metadata>
Created by potrace 1.14, written by Peter Selinger 2001-2017
</metadata>
<g transform="translate(0.000000,300.000000) scale(0.100000,-0.100000)"
fill="#000000" stroke="none">
<path d="M275 1870 c8 -9 15 -22 15 -28 0 -7 5 -12 10 -12 6 0 10 -7 10 -16 0
-18 38 -85 54 -96 6 -4 14 -4 19 -1 5 3 4 -4 -2 -16 -8 -14 -8 -21 -1 -21 5 0
10 -8 10 -17 1 -24 25 -55 35 -45 5 4 5 1 1 -5 -8 -14 19 -69 44 -91 13 -12
13 -13 0 -6 -13 7 -13 5 -1 -9 8 -11 28 -17 52 -17 37 0 39 1 83 83 25 46 47
95 48 109 2 19 7 24 18 20 13 -5 13 -3 1 11 -12 15 -12 17 0 12 14 -5 57 59
51 77 -1 4 2 8 7 8 16 0 23 38 11 60 -6 11 -17 20 -25 20 -19 0 -49 -46 -39
-61 4 -7 3 -9 -3 -6 -12 8 -76 -121 -67 -135 4 -7 2 -8 -4 -4 -7 4 -23 -16
-42 -54 -33 -64 -43 -71 -60 -40 -6 11 -16 18 -22 14 -6 -4 -8 0 -4 12 6 21
-46 119 -58 107 -4 -4 -5 -1 -2 7 3 8 -11 47 -32 85 -37 69 -37 70 -80 71 -39
1 -41 0 -27 -16z m69 -86 c3 -8 2 -12 -4 -9 -6 3 -10 10 -10 16 0 14 7 11 14
-7z m333 -16 c-3 -8 -6 -5 -6 6 -1 11 2 17 5 13 3 -3 4 -12 1 -19z m-94 -133
c-3 -9 -8 -14 -10 -11 -3 3 -2 9 2 15 9 16 15 13 8 -4z m-127 -32 c-8 -15 -15
-25 -16 -21 0 12 23 58 27 54 3 -2 -2 -17 -11 -33z m134 1 c0 -8 -19 -13 -24
-6 -3 5 1 9 9 9 8 0 15 -2 15 -3z"/>
<path d="M746 1875 c4 -8 7 -15 9 -15 1 0 8 7 15 15 10 13 9 15 -8 15 -15 0
-20 -5 -16 -15z"/>
<path d="M840 1691 l0 -199 30 -4 c27 -4 29 -2 32 31 2 20 2 111 0 204 l-3
167 -29 0 -30 0 0 -199z"/>
<path d="M1028 1874 c-36 -19 -48 -43 -48 -98 0 -58 13 -92 42 -107 14 -8 80
-15 163 -18 l140 -6 3 -30 c6 -49 -14 -55 -185 -55 l-153 0 0 -40 0 -40 158 0
c86 0 174 5 194 11 46 12 68 49 68 114 0 95 -35 115 -204 115 -63 0 -121 3
-130 6 -22 8 -22 70 0 78 9 3 82 6 164 6 l148 0 4 40 4 40 -171 0 c-130 -1
-176 -4 -197 -16z"/>
<path d="M1450 1850 l0 -40 75 0 75 0 0 -165 0 -165 40 0 40 0 0 165 0 165 75
0 75 0 0 40 0 40 -190 0 -190 0 0 -40z"/>
<path d="M1904 1713 c-53 -98 -103 -188 -110 -200 -20 -32 -19 -33 29 -33 40
0 44 3 67 45 27 49 17 46 155 46 130 0 122 3 151 -46 24 -41 29 -45 65 -45 21
0 39 3 39 6 0 6 -90 175 -129 244 -15 25 -40 71 -56 102 -29 57 -31 58 -72 58
l-42 0 -97 -177z m223 -69 c-2 -3 -43 -4 -90 -2 l-86 3 46 84 45 83 45 -82
c25 -45 43 -84 40 -86z"/>
<path d="M2350 1685 l0 -205 195 0 195 0 0 40 0 40 -155 0 -155 0 0 165 0 165
-40 0 -40 0 0 -205z"/>
<path d="M160 1455 l0 -235 1325 0 1325 0 0 235 0 235 -167 -2 c-219 -4 -226
-22 -10 -26 l157 -3 0 -204 0 -205 -1300 0 -1300 0 0 205 0 205 65 0 c51 0 65
3 65 15 0 12 -16 15 -80 15 l-80 0 0 -235z"/>
<path d="M300 1348 c0 -24 4 -38 8 -32 4 7 16 13 27 15 14 3 20 12 20 29 0 20
-6 26 -27 28 -27 3 -28 1 -28 -40z m46 21 c10 -17 -13 -36 -27 -22 -12 12 -4
33 11 33 5 0 12 -5 16 -11z"/>
<path d="M391 1348 c0 -24 3 -37 6 -30 6 14 33 16 33 2 0 -22 18 -8 23 17 7
39 -2 53 -34 53 -28 0 -29 -2 -28 -42z m45 21 c10 -17 -13 -36 -27 -22 -12 12
-4 33 11 33 5 0 12 -5 16 -11z"/>
<path d="M482 1373 c-6 -11 -6 -28 -1 -41 7 -19 15 -23 41 -20 26 2 34 8 36
26 2 13 -2 30 -8 38 -17 19 -57 18 -68 -3z m56 -17 c6 -29 -15 -43 -35 -24
-14 14 -14 20 -3 33 16 19 34 15 38 -9z"/>
<path d="M590 1350 c0 -41 1 -41 33 -38 29 3 32 6 32 38 0 32 -3 35 -32 38
-32 3 -33 3 -33 -38z m45 0 c0 -27 -22 -39 -31 -16 -8 22 3 49 19 43 6 -2 12
-14 12 -27z"/>
<path d="M693 1355 c2 -37 4 -40 32 -40 27 0 30 3 33 38 2 21 -1 37 -7 37 -6
0 -11 -13 -11 -29 0 -28 -15 -49 -27 -38 -3 4 -9 21 -14 39 -8 33 -8 33 -6 -7z"/>
<path d="M792 1378 c-15 -15 -15 -41 0 -56 14 -14 58 -16 58 -3 0 5 -8 7 -19
4 -23 -6 -34 10 -26 38 5 14 12 18 26 14 11 -4 19 -2 19 4 0 15 -43 14 -58 -1z"/>
<path d="M880 1350 c0 -39 1 -40 33 -39 23 1 26 3 10 6 -29 5 -30 23 -2 23 11
0 18 4 14 10 -3 5 -12 7 -20 3 -9 -3 -15 1 -15 10 0 9 10 18 23 20 16 3 13 5
-10 6 -32 1 -33 0 -33 -39z"/>
<path d="M970 1350 c0 -22 5 -40 10 -40 6 0 10 10 10 22 l0 22 16 -22 c23 -33
34 -27 34 21 0 29 -3 38 -9 27 -6 -8 -7 -18 -5 -22 3 -4 1 -8 -5 -8 -6 0 -15
9 -21 20 -17 32 -30 23 -30 -20z"/>
<path d="M1073 1383 c12 -3 17 -15 17 -39 0 -19 5 -34 10 -34 6 0 10 15 10 34
0 19 6 37 13 39 6 3 -6 5 -28 5 -22 0 -32 -2 -22 -5z"/>
<path d="M1202 1378 c-29 -29 -2 -72 40 -66 22 3 40 38 19 38 -6 0 -11 -7 -11
-16 0 -22 -34 -13 -38 10 -5 23 16 38 42 30 12 -4 16 -2 12 5 -9 15 -49 14
-64 -1z"/>
<path d="M1305 1354 c-8 -20 -15 -37 -15 -38 0 -1 18 -1 40 -1 22 0 40 1 40 3
0 14 -31 72 -39 72 -6 0 -18 -16 -26 -36z m35 -4 c0 -5 -4 -10 -10 -10 -5 0
-10 5 -10 10 0 6 5 10 10 10 6 0 10 -4 10 -10z"/>
<path d="M1390 1351 c0 -39 13 -55 23 -28 4 10 7 10 18 0 20 -20 25 -16 24 25
0 34 -2 37 -32 40 -32 3 -33 2 -33 -37z m53 22 c8 -7 -11 -33 -24 -33 -5 0 -9
9 -9 20 0 19 20 27 33 13z"/>
<path d="M1510 1386 c0 -2 -6 -19 -14 -38 l-14 -33 39 0 c21 0 39 2 39 4 0 20
-27 71 -37 71 -7 0 -13 -2 -13 -4z m20 -36 c0 -5 -5 -10 -11 -10 -5 0 -7 5 -4
10 3 6 8 10 11 10 2 0 4 -4 4 -10z"/>
<path d="M1598 1383 c27 -5 27 -8 1 -44 l-20 -29 38 1 c23 1 29 3 15 6 l-22 4
20 29 c27 38 26 40 -17 39 -24 -1 -29 -3 -15 -6z"/>
<path d="M1688 1350 c19 -45 28 -50 35 -17 2 12 8 30 12 40 4 10 3 17 -4 17
-6 0 -11 -7 -11 -15 0 -8 -4 -15 -9 -15 -5 0 -11 7 -15 15 -3 8 -10 15 -15 15
-5 0 -2 -18 7 -40z"/>
<path d="M1810 1351 c0 -40 1 -41 34 -41 34 0 35 1 33 38 -3 34 -6 37 -35 40
-31 3 -32 2 -32 -37z m41 16 c-1 -12 -15 -9 -19 4 -3 6 1 10 8 8 6 -3 11 -8
11 -12z m9 -37 c0 -5 -7 -10 -15 -10 -8 0 -15 5 -15 10 0 6 7 10 15 10 8 0 15
-4 15 -10z"/>
<path d="M1900 1350 c0 -39 1 -40 33 -39 23 1 26 3 10 6 -19 4 -23 11 -23 39
0 19 -4 34 -10 34 -5 0 -10 -18 -10 -40z"/>
<path d="M1988 1353 l-14 -38 41 0 41 0 -14 38 c-8 20 -20 37 -27 37 -7 0 -19
-17 -27 -37z m36 2 c3 -8 1 -15 -4 -15 -6 0 -10 7 -10 15 0 8 2 15 4 15 2 0 6
-7 10 -15z"/>
<path d="M2080 1371 c0 -11 9 -23 20 -26 31 -10 24 -28 -7 -20 -21 5 -25 4
-17 -5 16 -16 58 -8 62 12 2 9 -5 19 -17 23 -12 3 -21 11 -21 16 0 6 9 7 20 4
11 -4 20 -2 20 4 0 6 -13 11 -30 11 -23 0 -30 -5 -30 -19z"/>
<path d="M2178 1383 c23 -5 29 -18 12 -28 -5 -3 -15 -15 -20 -26 -10 -17 -7
-19 27 -18 30 1 33 2 15 8 l-24 6 21 27 c28 35 27 38 -16 37 -24 -1 -29 -3
-15 -6z"/>
<path d="M2264 1355 c-7 -19 -14 -36 -14 -37 0 -2 18 -3 40 -3 22 0 40 0 40 1
0 14 -33 74 -41 74 -5 0 -17 -16 -25 -35z m36 -5 c0 -5 -4 -10 -10 -10 -5 0
-10 5 -10 10 0 6 5 10 10 10 6 0 10 -4 10 -10z"/>
<path d="M2350 1350 c0 -22 5 -40 10 -40 6 0 10 10 10 23 l1 22 18 -22 c28
-34 41 -28 41 17 0 22 -4 40 -10 40 -5 0 -10 -12 -10 -27 l-1 -28 -17 28 c-25
40 -42 35 -42 -13z"/>
<path d="M2468 1350 c9 -22 19 -40 22 -40 7 0 30 74 24 79 -2 3 -10 -4 -17
-14 -13 -16 -14 -16 -20 -1 -4 9 -11 16 -16 16 -5 0 -2 -18 7 -40z"/>
<path d="M2550 1376 c-6 -8 -10 -25 -8 -38 2 -18 10 -24 36 -26 18 -2 32 1 32
7 0 6 -10 10 -22 8 -18 -2 -23 3 -23 23 0 20 5 25 23 23 12 -2 22 2 22 7 0 15
-46 12 -60 -4z"/>
<path d="M2630 1350 c0 -22 5 -40 10 -40 6 0 10 7 10 15 0 8 9 15 20 15 11 0
20 -7 20 -15 0 -8 5 -15 10 -15 6 0 10 18 10 40 0 22 -4 40 -10 40 -5 0 -10
-9 -10 -20 0 -13 -7 -20 -20 -20 -13 0 -20 7 -20 20 0 11 -4 20 -10 20 -5 0
-10 -18 -10 -40z"/>
</g>
</svg>
